<?xml version="1.0" encoding="utf-8"?>
<!-- Generator: Adobe Illustrator 17.0.0, SVG Export Plug-In . SVG Version: 6.00 Build 0)  -->
<!DOCTYPE svg PUBLIC "-//W3C//DTD SVG 1.1//EN" "http://www.w3.org/Graphics/SVG/1.1/DTD/svg11.dtd">
<svg version="1.1" xmlns="http://www.w3.org/2000/svg" xmlns:xlink="http://www.w3.org/1999/xlink" x="0px" y="0px" width="35px"
	 height="40px" viewBox="0 0 35 40" enable-background="new 0 0 35 40" xml:space="preserve">
<g id="_x32_14_1_" enable-background="new    ">
	<g id="_x32_14">
		<g>
			<path fill-rule="evenodd" clip-rule="evenodd" fill="#9B27AE" d="M11.781,17.309c0.476-0.437,0.806-0.772,0.988-1.004
				c0.276-0.351,0.477-0.687,0.604-1.007c0.127-0.32,0.191-0.658,0.191-1.012c0-0.623-0.222-1.144-0.666-1.563
				c-0.444-0.419-1.055-0.628-1.832-0.628c-0.709,0-1.3,0.181-1.772,0.542c-0.473,0.362-0.754,0.958-0.843,1.789l1.504,0.15
				c0.029-0.44,0.136-0.755,0.322-0.945c0.186-0.19,0.437-0.285,0.752-0.285c0.319,0,0.568,0.09,0.749,0.271
				c0.181,0.181,0.271,0.44,0.271,0.776c0,0.304-0.104,0.612-0.312,0.924c-0.154,0.226-0.571,0.655-1.251,1.289
				c-0.845,0.784-1.411,1.414-1.697,1.888C8.503,18.968,8.331,19.47,8.274,20h5.291v-1.402h-2.997
				c0.079-0.136,0.182-0.276,0.309-0.419C11.003,18.036,11.305,17.746,11.781,17.309z M16.271,13.353
				c-0.462,0.36-0.89,0.604-1.284,0.733v1.37c0.748-0.247,1.398-0.628,1.95-1.144V20h1.509v-7.906h-1.225
				C17.05,12.574,16.733,12.993,16.271,13.353z M25.123,17.089v-4.995h-1.268l-3.416,5v1.321h3.223V20h1.461v-1.584h0.978v-1.327
				H25.123z M23.662,17.089h-1.81l1.81-2.691V17.089z"/>
		</g>
	</g>
</g>
<g id="Shape_106_1_" enable-background="new    ">
	<g id="Shape_106">
		<g>
			<path fill="#9B27AE" d="M34.379,6.299c-5.118-1.134-8.394-2.671-10.838-3.94C21.097,1.09,19.45,0,17.5,0s-3.597,1.09-6.041,2.359
				c-2.444,1.269-5.72,2.805-10.838,3.94L0,6.449v0.627C0,19.379,4.272,27.6,8.551,32.698c4.279,5.098,8.626,7.127,8.626,7.127
				L17.525,40l0.348-0.176c0,0,17.127-8.933,17.127-32.748V6.449L34.379,6.299z M17.475,38.168
				c-0.493-0.242-3.936-1.978-7.731-6.499c-3.998-4.763-7.958-12.427-8.104-23.99c4.834-1.15,8.17-2.659,10.54-3.89
				c2.496-1.296,4.01-2.183,5.32-2.183s2.824,0.887,5.32,2.183c2.37,1.231,5.706,2.739,10.54,3.89
				C33.069,29.456,18.498,37.624,17.475,38.168z"/>
		</g>
	</g>
</g>
</svg>
