<?xml version="1.0" encoding="utf-8"?>
<!-- Generator: Adobe Illustrator 17.0.0, SVG Export Plug-In . SVG Version: 6.00 Build 0)  -->
<!DOCTYPE svg PUBLIC "-//W3C//DTD SVG 1.1//EN" "http://www.w3.org/Graphics/SVG/1.1/DTD/svg11.dtd">
<svg version="1.1" id="Shape_109_1_" xmlns="http://www.w3.org/2000/svg" xmlns:xlink="http://www.w3.org/1999/xlink" x="0px"
	 y="0px" width="40px" height="40px" viewBox="0 0 40 40" enable-background="new 0 0 40 40" xml:space="preserve">
<g id="Shape_109">
	<g>
		<path fill-rule="evenodd" clip-rule="evenodd" fill="#9B27AE" d="M5.577,32.844c-0.883,0-1.599,0.716-1.599,1.6
			c0,0.884,0.716,1.6,1.599,1.6c0.883,0,1.599-0.716,1.599-1.6C7.176,33.561,6.46,32.844,5.577,32.844z M39.431,14.569l-13.991-14
			l-0.55-0.575l-0.575,0.575l-4.747,4.775c-0.008,0.008-0.017,0.016-0.025,0.025l-4.947,4.925c-0.017,0.016-0.034,0.033-0.05,0.05
			l-0.05,0.025c0,0.008,0,0.017,0,0.025l-0.55,0.55l-4.272,4.275c-0.231,0.229-0.3,0.575-0.175,0.875c0,0,0.742,1.718,1.299,3.6
			c0.279,0.941,0.51,1.922,0.575,2.7c0.064,0.778-0.101,1.276-0.175,1.35c-1.348,1.349-2.673,1.978-3.973,2.525
			c-1.299,0.547-2.611,1.012-3.673,2.075c-1.551,1.552-2.696,3.519-3.223,5.425c-0.527,1.906-0.459,3.864,0.799,5.125
			c1.26,1.262,3.216,1.327,5.122,0.8s3.871-1.674,5.422-3.225c1.061-1.064,1.754-2.589,2.448-4.05
			c0.694-1.461,1.408-2.858,2.149-3.6c0.188-0.189,0.698-0.352,1.474-0.3c0.776,0.052,1.731,0.282,2.648,0.575
			c1.835,0.586,3.473,1.4,3.473,1.4c0.308,0.155,0.681,0.094,0.924-0.15l4.272-4.275l0.55-0.55c0.017-0.016,0.034-0.033,0.05-0.05
			l6.196-6.2l0.125-0.1c0.06-0.058,0.111-0.126,0.15-0.2l3.298-3.275l0.575-0.575L39.431,14.569z M24.04,28.844
			c-0.409-0.197-1.464-0.737-3.148-1.275c-0.989-0.316-2.056-0.584-3.048-0.65s-2.01,0.061-2.723,0.775
			c-1.061,1.062-1.729,2.564-2.423,4.025c-0.694,1.461-1.407,2.881-2.149,3.625c-1.347,1.347-3.128,2.359-4.722,2.8
			c-1.594,0.441-2.876,0.272-3.548-0.4c-0.67-0.671-0.841-1.955-0.4-3.55c0.441-1.595,1.451-3.377,2.798-4.725
			c0.741-0.742,1.824-1.157,3.173-1.725s2.925-1.301,4.472-2.85c0.693-0.693,0.729-1.659,0.65-2.625
			c-0.08-0.966-0.328-2.024-0.625-3.025c-0.511-1.727-1.029-2.852-1.199-3.25l3.922-3.9l12.842,12.85L24.04,28.844z M29.062,23.819
			L16.195,10.944l2.299-2.325c0.122,0.399,0.35,0.8,0.7,1.15c0.748,0.748,1.804,0.704,2.623,0.5
			c0.819-0.204,1.539-0.582,1.999-0.875c0.593-0.378,1.286-0.765,1.849-0.95c0.281-0.093,0.534-0.128,0.675-0.125
			c0.118,0.003,0.119,0.02,0.125,0.025c0.007,0.029,0.027,0.091,0.025,0.2c-0.003,0.218-0.072,0.56-0.175,0.925
			c-0.206,0.73-0.577,1.562-0.824,2.15c-0.568,1.348-0.388,2.711,0.475,3.575c0.463,0.464,1.103,0.601,1.624,0.575
			c0.521-0.026,0.987-0.165,1.424-0.275c0.437-0.109,0.821-0.198,1.099-0.2c0.279-0.002,0.394,0.044,0.525,0.175
			c0.127,0.128,0.173,0.256,0.175,0.55c0.002,0.294-0.065,0.695-0.175,1.125c-0.11,0.43-0.261,0.882-0.325,1.35
			c-0.064,0.468-0.067,1.083,0.4,1.55c0.423,0.423,0.98,0.592,1.499,0.625L29.062,23.819z M35.008,17.894l-0.025,0.025
			c-0.045,0.029-0.087,0.063-0.125,0.1c0.007-0.007-0.221,0.203-0.5,0.375c-0.279,0.172-0.641,0.338-0.999,0.475
			c-0.358,0.137-0.71,0.227-0.974,0.225c-0.234-0.002-0.361-0.055-0.475-0.15c-0.002-0.025-0.019-0.087,0-0.225
			c0.038-0.276,0.156-0.708,0.275-1.175c0.119-0.467,0.229-0.968,0.225-1.525c-0.004-0.557-0.172-1.197-0.65-1.675
			c-0.475-0.475-1.104-0.655-1.649-0.65c-0.545,0.005-1.051,0.138-1.499,0.25c-0.448,0.112-0.854,0.212-1.124,0.225
			c-0.27,0.013-0.322-0.022-0.4-0.1c-0.404-0.404-0.534-0.853-0.125-1.825c0.241-0.572,0.65-1.465,0.899-2.35
			c0.125-0.443,0.218-0.879,0.225-1.325c0.007-0.446-0.076-0.951-0.475-1.35c-0.347-0.347-0.832-0.49-1.249-0.5
			c-0.417-0.01-0.807,0.071-1.199,0.2c-0.785,0.259-1.564,0.705-2.224,1.125c-0.334,0.213-0.963,0.535-1.524,0.675
			s-0.921,0.079-1.099-0.1c-0.469-0.469-0.416-0.763-0.275-1.175c0.141-0.412,0.501-0.826,0.625-0.95
			c0.037-0.038,0.071-0.08,0.1-0.125c0.018-0.024,0.035-0.049,0.05-0.075l4.047-4.05l12.892,12.9L35.008,17.894z"/>
	</g>
</g>
</svg>
