<?xml version="1.0" encoding="utf-8"?>
<!-- Generator: Adobe Illustrator 17.0.0, SVG Export Plug-In . SVG Version: 6.00 Build 0)  -->
<!DOCTYPE svg PUBLIC "-//W3C//DTD SVG 1.1//EN" "http://www.w3.org/Graphics/SVG/1.1/DTD/svg11.dtd">
<svg version="1.1" id="Shape_108_1_" xmlns="http://www.w3.org/2000/svg" xmlns:xlink="http://www.w3.org/1999/xlink" x="0px"
	 y="0px" width="40px" height="40px" viewBox="0 0 40 40" enable-background="new 0 0 40 40" xml:space="preserve">
<g id="Shape_108">
	<g>
		<path fill-rule="evenodd" clip-rule="evenodd" fill="#9B27AE" d="M40,4.8c0-0.855-0.498-1.604-1.175-2.175
			c-0.677-0.571-1.551-1.016-2.625-1.4C34.052,0.458,31.17,0,28,0s-6.052,0.458-8.2,1.225c-1.074,0.384-1.948,0.829-2.625,1.4
			C16.498,3.196,16,3.945,16,4.8c0,0.159,0.017,0.324,0.05,0.475C16.011,5.379,15.994,5.489,16,5.6v4.8
			c0,0.159,0.017,0.324,0.05,0.475c-0.039,0.104-0.056,0.214-0.05,0.325v2.65c-1.253-0.167-2.595-0.25-4-0.25
			c-3.17,0-6.052,0.458-8.2,1.225c-1.074,0.384-1.948,0.829-2.625,1.4C0.498,16.796,0,17.545,0,18.4c0,0.159,0.017,0.324,0.05,0.475
			C0.011,18.979-0.006,19.089,0,19.2V24c0,0.159,0.017,0.324,0.05,0.475C0.011,24.579-0.006,24.689,0,24.8v4.8
			c0,0.159,0.017,0.324,0.05,0.475C0.011,30.179-0.006,30.289,0,30.4v4.8c0,0.855,0.499,1.604,1.175,2.175
			c0.676,0.571,1.551,1.016,2.625,1.4C5.948,39.542,8.829,40,12,40s6.052-0.458,8.2-1.225c1.074-0.384,1.949-0.829,2.625-1.4
			C23.501,36.804,24,36.055,24,35.2v-3.45c1.253,0.166,2.591,0.25,4,0.25c3.171,0,6.052-0.458,8.2-1.225
			c1.074-0.384,1.949-0.829,2.625-1.4C39.501,28.804,40,28.055,40,27.2v-4.8c0.006-0.111-0.011-0.221-0.05-0.325
			C39.983,21.924,40,21.759,40,21.6v-4.8c0.006-0.111-0.011-0.221-0.05-0.325C39.983,16.324,40,16.159,40,16v-4.8
			c0.006-0.111-0.011-0.221-0.05-0.325C39.983,10.724,40,10.559,40,10.4V5.6c-0.002-0.112-0.027-0.223-0.075-0.325
			C39.958,5.122,40,4.961,40,4.8z M22.4,35.2c0,0.25-0.143,0.564-0.6,0.95c-0.457,0.386-1.197,0.785-2.15,1.125
			C17.745,37.955,15.016,38.4,12,38.4s-5.745-0.445-7.65-1.125c-0.953-0.34-1.693-0.739-2.15-1.125c-0.457-0.386-0.6-0.7-0.6-0.95
			v-3.125c0.608,0.425,1.331,0.79,2.2,1.1C5.948,33.942,8.829,34.4,12,34.4s6.052-0.458,8.2-1.225c0.869-0.31,1.592-0.675,2.2-1.1
			V35.2z M22.4,29.6c0,0.25-0.143,0.564-0.6,0.95c-0.457,0.386-1.197,0.785-2.15,1.125C17.745,32.355,15.016,32.8,12,32.8
			s-5.745-0.445-7.65-1.125c-0.953-0.34-1.693-0.739-2.15-1.125s-0.6-0.7-0.6-0.95v-3.125c0.608,0.425,1.331,0.79,2.2,1.1
			C5.948,28.342,8.829,28.8,12,28.8s6.052-0.458,8.2-1.225c0.869-0.31,1.592-0.675,2.2-1.1V29.6z M22.4,24
			c0,0.25-0.143,0.564-0.6,0.95c-0.457,0.386-1.197,0.785-2.15,1.125C17.745,26.755,15.016,27.2,12,27.2s-5.745-0.445-7.65-1.125
			c-0.953-0.34-1.693-0.739-2.15-1.125c-0.457-0.386-0.6-0.7-0.6-0.95v-3.125c0.608,0.425,1.331,0.79,2.2,1.1
			C5.948,22.742,8.83,23.2,12,23.2s6.052-0.458,8.2-1.225c0.869-0.31,1.592-0.675,2.2-1.1V24z M21.8,19.35
			c-0.457,0.386-1.197,0.785-2.15,1.125C17.745,21.156,15.016,21.6,12,21.6c-3.016,0-5.745-0.444-7.65-1.125
			c-0.953-0.34-1.693-0.739-2.15-1.125s-0.6-0.7-0.6-0.95c0-0.25,0.143-0.564,0.6-0.95s1.197-0.785,2.15-1.125
			C6.255,15.644,8.984,15.2,12,15.2c3.016,0,5.745,0.444,7.65,1.125c0.953,0.34,1.693,0.739,2.15,1.125s0.6,0.7,0.6,0.95
			C22.4,18.65,22.257,18.964,21.8,19.35z M38.4,27.2c0,0.25-0.143,0.564-0.6,0.95c-0.457,0.386-1.197,0.785-2.15,1.125
			C33.745,29.955,31.016,30.4,28,30.4c-1.451,0-2.818-0.119-4.075-0.3c0-0.008,0-0.017,0-0.025C23.958,29.922,24,29.761,24,29.6
			v-3.45c1.25,0.167,2.6,0.25,4,0.25c3.171,0,6.052-0.458,8.2-1.225c0.869-0.31,1.592-0.675,2.2-1.1V27.2z M38.4,21.6
			c0,0.25-0.143,0.564-0.6,0.95s-1.197,0.785-2.15,1.125C33.745,24.355,31.016,24.8,28,24.8c-1.436,0-2.802-0.12-4.05-0.3
			c-0.008,0-0.017,0-0.025,0c0.002-0.008-0.002-0.017,0-0.025C23.96,24.321,24,24.161,24,24v-3.45c1.248,0.162,2.597,0.25,4,0.25
			c3.171,0,6.052-0.458,8.2-1.225c0.869-0.31,1.592-0.675,2.2-1.1V21.6z M38.4,16c0,0.25-0.143,0.564-0.6,0.95
			c-0.457,0.386-1.197,0.785-2.15,1.125C33.745,18.756,31.016,19.2,28,19.2c-1.439,0-2.822-0.098-4.075-0.275
			c0-0.017,0-0.033,0-0.05C23.958,18.722,24,18.561,24,18.4c0-0.855-0.498-1.604-1.175-2.175c-0.677-0.571-1.551-1.016-2.625-1.4
			c-0.777-0.278-1.652-0.51-2.6-0.7v-1.25c0.608,0.425,1.331,0.79,2.2,1.1c2.148,0.767,5.029,1.225,8.2,1.225
			c3.171,0,6.052-0.458,8.2-1.225c0.869-0.31,1.592-0.675,2.2-1.1V16z M38.4,10.4c0,0.25-0.143,0.564-0.6,0.95
			c-0.457,0.386-1.197,0.785-2.15,1.125C33.745,13.156,31.016,13.6,28,13.6s-5.745-0.444-7.65-1.125
			c-0.953-0.34-1.693-0.739-2.15-1.125c-0.457-0.386-0.6-0.7-0.6-0.95V7.275c0.608,0.425,1.331,0.79,2.2,1.1
			C21.948,9.142,24.83,9.6,28,9.6s6.052-0.458,8.2-1.225c0.869-0.31,1.592-0.675,2.2-1.1V10.4z M37.8,5.75
			c-0.457,0.386-1.197,0.785-2.15,1.125C33.745,7.556,31.016,8,28,8c-3.016,0-5.745-0.444-7.65-1.125
			c-0.953-0.34-1.693-0.739-2.15-1.125c-0.457-0.386-0.6-0.7-0.6-0.95c0-0.25,0.143-0.564,0.6-0.95
			c0.457-0.386,1.197-0.785,2.15-1.125C22.255,2.044,24.984,1.6,28,1.6c3.016,0,5.745,0.445,7.65,1.125
			c0.953,0.34,1.693,0.739,2.15,1.125c0.457,0.386,0.6,0.7,0.6,0.95C38.4,5.05,38.257,5.364,37.8,5.75z"/>
	</g>
</g>
</svg>
