<?xml version="1.0" encoding="utf-8"?>
<!-- Generator: Adobe Illustrator 17.0.0, SVG Export Plug-In . SVG Version: 6.00 Build 0)  -->
<!DOCTYPE svg PUBLIC "-//W3C//DTD SVG 1.1//EN" "http://www.w3.org/Graphics/SVG/1.1/DTD/svg11.dtd">
<svg version="1.1" id="Shape_1_1_" xmlns="http://www.w3.org/2000/svg" xmlns:xlink="http://www.w3.org/1999/xlink" x="0px" y="0px"
	 width="37px" height="40px" viewBox="0 0 37 40" enable-background="new 0 0 37 40" xml:space="preserve">
<g id="Shape_1">
	<g>
		<path fill="#9B27AE" d="M18.598,26.228c-1.672-0.435-3.246-0.767-3.246-2.42c0-0.696,0.264-2.257,2.641-2.257
			c1.672,0,2.459,1.039,2.723,2.257h1.595c-0.44-1.74-1.232-3.317-3.521-3.753v-1.822h-1.595v1.74
			c-1.32,0.174-3.603,1.213-3.603,3.997c0,5.047,7.399,2.453,7.399,6.281c0,1.305-0.622,2.42-2.998,2.42
			c-2.465,0-3.163-1.92-3.163-2.964h-1.595c0.264,3.394,2.641,4.198,3.961,4.46v1.468h1.595v-1.468
			c1.232-0.087,4.043-0.973,4.043-4.106C22.834,27.451,20.711,26.75,18.598,26.228z M25.777,13.529
			c0.421-0.056,0.858-0.094,1.32-0.082c1.48,0.039,3.064,0.478,4.429,1.904c0.297,0.38,0.85,0.45,1.235,0.156
			c0.385-0.294,0.455-0.841,0.158-1.221c-0.038-0.048-0.08-0.092-0.127-0.132c-1.597-1.669-3.527-2.3-5.254-2.42
			c1.443-0.598,3.104-0.778,5.089,0.299c0.397,0.277,0.947,0.183,1.227-0.21s0.185-0.936-0.212-1.213
			c-0.059-0.041-0.122-0.074-0.189-0.1c-1.239-0.673-2.412-0.946-3.521-0.952c-2.494-0.013-4.59,1.3-5.969,2.23
			c-0.2-3.17,1.615-5.7,1.843-5.982l0.027-0.027l0.028-0.054c0.305-0.474,0.783-1.153,0.99-1.958
			c0.104-0.403,0.162-0.931-0.193-1.414C26.303,1.869,25.704,1.7,25.117,1.7c-1.1,0-2.094,0.371-2.888,0.517
			c-0.794,0.145-1.198,0.121-1.595-0.272v0.027c-0.005-0.006-0.022,0.006-0.028,0c-1.146-1.176-2.074-1.951-3.246-1.985
			c-0.589-0.017-1.154,0.2-1.623,0.544c-0.468,0.344-0.888,0.795-1.293,1.36c-0.311,0.431-0.616,0.614-1.155,0.734
			s-1.293,0.109-2.173,0.109c-0.984,0-1.694,0.086-2.283,0.299C8.362,3.203,7.934,3.535,7.706,3.957
			c-0.01,0.027-0.02,0.054-0.028,0.082c-0.009,0.019-0.02,0.035-0.027,0.054c-0.01,0.018-0.019,0.036-0.028,0.054
			C7.606,4.194,7.58,4.234,7.568,4.283c-0.142,0.586,0.06,1.077,0.303,1.468c0.239,0.385,0.561,0.713,0.88,1.006
			c0.368,0.364,1.147,1.024,1.898,2.203c0.679,1.065,1.17,2.512,1.128,4.242c-2.917,0.88-5.7,2.976-7.839,5.656
			c-2.32,2.907-3.906,6.452-3.906,9.898c0,4.253,1.347,7.282,4.401,9.001c3.054,1.718,7.564,2.23,14.083,2.23
			c6.519,0,11.029-0.511,14.083-2.23C35.653,36.039,37,33.01,37,28.756C37,22.176,31.784,16.154,25.777,13.529z M9.686,4.637
			c0.304-0.08,0.742-0.163,1.43-0.163c0.88,0,1.733,0.021,2.558-0.163c0.825-0.184,1.631-0.626,2.201-1.414h0.028
			c0.344-0.479,0.644-0.806,0.88-0.979c0.236-0.173,0.363-0.195,0.523-0.19c0.319,0.009,1.016,0.364,2.063,1.441h0.027v0.027
			c0.923,0.912,2.175,0.888,3.163,0.707c0.746-0.137,1.454-0.321,2.035-0.408c0.01,0.065,0.025,0.066-0.055,0.19
			c-0.08,0.124-0.261,0.33-0.55,0.571c-0.578,0.483-1.54,1.097-2.558,2.012c-0.415,0.376-0.91,0.632-1.293,0.68
			c-0.383,0.047-0.6-0.027-0.853-0.326h-0.027c-0.446-0.552-0.85-0.969-1.32-1.251c-0.48-0.288-1.05-0.434-1.568-0.353
			c-1.029,0.161-1.681,0.889-2.476,1.632h-0.027V6.622c-0.454,0.42-0.994,0.561-1.815,0.218C11.358,6.55,10.503,5.825,9.686,4.637z
			 M22.229,12.822c-4.072,1.954-7.331,0.92-8.582,0.354c0.034-1.775-0.487-3.296-1.128-4.487c0.951,0.092,1.88-0.16,2.558-0.789
			c0.783-0.731,1.349-1.108,1.568-1.142c0.109-0.017,0.18-0.041,0.385,0.082c0.205,0.123,0.5,0.396,0.88,0.87v0.027h0.028
			c0.628,0.745,1.571,1.029,2.421,0.925C21.208,8.556,22,8.155,22.642,7.574c0.094-0.085,0.182-0.137,0.275-0.218
			C22.327,8.771,21.856,10.659,22.229,12.822z M31.746,36.262c-2.513,1.414-6.811,1.985-13.231,1.985S7.798,37.676,5.285,36.262
			c-2.513-1.414-3.493-3.579-3.493-7.505c0-2.906,1.396-6.176,3.521-8.838c2.096-2.626,4.89-4.628,7.482-5.248
			c1.475,0.655,5.547,1.998,10.342-0.353c6.085,1.761,12.103,8.13,12.103,14.439C35.24,32.683,34.259,34.847,31.746,36.262z"/>
	</g>
</g>
</svg>
