<?xml version="1.0" encoding="utf-8"?>
<!-- Generator: Adobe Illustrator 17.0.0, SVG Export Plug-In . SVG Version: 6.00 Build 0)  -->
<!DOCTYPE svg PUBLIC "-//W3C//DTD SVG 1.1//EN" "http://www.w3.org/Graphics/SVG/1.1/DTD/svg11.dtd">
<svg version="1.1" id="Shape_107_1_" xmlns="http://www.w3.org/2000/svg" xmlns:xlink="http://www.w3.org/1999/xlink" x="0px"
	 y="0px" width="40px" height="40px" viewBox="0 0 40 40" enable-background="new 0 0 40 40" xml:space="preserve">
<g id="Shape_107">
	<g>
		<path fill="#9B27AE" d="M5.6,35.2H24h10.4c0.442,0,0.8-0.358,0.8-0.8V17.6c0-0.442-0.358-0.8-0.8-0.8H5.6
			c-0.025-0.001-0.05-0.001-0.075,0c-0.025-0.001-0.05-0.001-0.075,0c-0.383,0.073-0.657,0.411-0.65,0.8v16.8
			C4.8,34.842,5.158,35.2,5.6,35.2z M28,18.4h5.6v4H28V18.4z M28,24h5.6v4H28V24z M28,29.6h5.6v4H28V29.6z M20.8,18.4h5.6v4h-5.6
			V18.4z M20.8,24h5.6v4h-5.6V24z M20.8,29.6h5.6v4H24h-3.2V29.6z M13.6,18.4h5.6v4h-5.6V18.4z M13.6,24h5.6v4h-5.6V24z M13.6,29.6
			h5.6v4h-5.6V29.6z M6.4,18.4H12v4H6.4V18.4z M6.4,24H12v4H6.4V24z M6.4,29.6H12v4H6.4V29.6z M39.55,3.65
			C39.248,3.348,38.818,3.2,38.4,3.2h-5.6V1.6c0-0.418-0.148-0.848-0.45-1.15C32.048,0.148,31.618,0,31.2,0h-1.6
			c-0.418,0-0.848,0.148-1.15,0.45C28.148,0.752,28,1.182,28,1.6v1.6H12V1.6c0-0.418-0.148-0.848-0.45-1.15
			C11.248,0.148,10.818,0,10.4,0H8.8C8.382,0,7.952,0.148,7.65,0.45C7.348,0.752,7.2,1.182,7.2,1.6v1.6H1.6
			c-0.418,0-0.848,0.148-1.15,0.45C0.148,3.952,0,4.382,0,4.8v33.6c0,0.418,0.148,0.848,0.45,1.15S1.182,40,1.6,40h36.8
			c0.418,0,0.848-0.148,1.15-0.45C39.852,39.248,40,38.818,40,38.4V4.8C40,4.382,39.852,3.952,39.55,3.65z M29.6,1.6h1.6v4.8h-1.6
			V1.6z M8.8,1.6h1.6v4.8H8.8V1.6z M38.4,38.4H1.6V12.8h36.8V38.4z M38.4,11.2H1.6V4.8h5.6v1.6c0,0.418,0.148,0.848,0.45,1.15
			C7.952,7.852,8.382,8,8.8,8h1.6c0.418,0,0.848-0.148,1.15-0.45C11.852,7.248,12,6.818,12,6.4V4.8h16v1.6
			c0,0.418,0.148,0.848,0.45,1.15C28.752,7.852,29.182,8,29.6,8h1.6c0.418,0,0.848-0.148,1.15-0.45
			c0.302-0.302,0.45-0.732,0.45-1.15V4.8h5.6V11.2z"/>
	</g>
</g>
</svg>
