<?xml version="1.0" encoding="utf-8"?>
<!-- Generator: Adobe Illustrator 17.0.0, SVG Export Plug-In . SVG Version: 6.00 Build 0)  -->
<!DOCTYPE svg PUBLIC "-//W3C//DTD SVG 1.1//EN" "http://www.w3.org/Graphics/SVG/1.1/DTD/svg11.dtd">
<svg version="1.1" id="Shape_110_1_" xmlns="http://www.w3.org/2000/svg" xmlns:xlink="http://www.w3.org/1999/xlink" x="0px"
	 y="0px" width="40px" height="36px" viewBox="0 0 40 36" enable-background="new 0 0 40 36" xml:space="preserve">
<g id="Shape_110">
	<g>
		<path fill-rule="evenodd" clip-rule="evenodd" fill="#9B27AE" d="M23.899,2.25l1.15,0.338l0.505-1.716L24.32,0.506h-0.028h-0.028
			l-0.533-0.112l-0.337,1.772l0.449,0.084H23.899z M27.349,3.544l0.028,0.028l0.729,0.422l0.898-1.547l-0.785-0.478h-0.028
			l-0.056-0.028l-0.785-0.366l-0.757,1.631l0.729,0.338H27.349z M39.402,7.457c-0.034-0.013-0.068-0.024-0.103-0.032l-6.48-1.997
			l-1.01-0.309l-0.14,1.069l-0.898,6.666c-0.062,0.497,0.29,0.95,0.785,1.013c0.496,0.062,0.948-0.29,1.01-0.788l0.589-4.444
			c1.849,2.642,3.001,5.825,3.001,9.366c0,8.955-7.202,16.185-16.129,16.2l-1.29-0.056h-0.056l-0.365-0.056l-0.224,1.8l0.421,0.056
			h0.056h0.028L19.972,36L20,35.1V36c9.909,0,17.952-8.064,17.952-18c0-3.758-1.167-7.185-3.057-10.041l3.871,1.181
			c0.464,0.176,0.982-0.058,1.157-0.523C40.099,8.153,39.865,7.633,39.402,7.457z M8.47,22.126
			c-0.102-0.015-0.206-0.012-0.307,0.008c-0.39,0.072-0.686,0.392-0.729,0.787l-0.617,4.472C4.948,24.745,3.843,21.524,3.843,18
			c0-8.955,7.202-16.185,16.129-16.2H20l1.29,0.056h0.084l0.309,0.028l0.224-1.772l-0.393-0.056h-0.056h-0.028L20.028,0L20,0.9V0
			C10.091,0,2.048,8.064,2.048,18c0,3.731,1.122,7.175,3.029,10.041l-3.843-1.181c-0.464-0.176-0.982,0.058-1.158,0.523
			c-0.176,0.465,0.058,0.984,0.521,1.161c0.034,0.013,0.068,0.024,0.103,0.032l6.48,1.997l1.01,0.309l0.14-1.069l0.898-6.666
			C9.3,22.655,8.961,22.198,8.47,22.126z M12.735,32.484l-0.028-0.028l-0.842-0.45l-0.87,1.575l0.898,0.478l0.028,0.028h0.028
			l0.701,0.338l0.757-1.631l-0.645-0.309H12.735z M16.241,33.75l-1.206-0.338h-0.028h-0.028l-0.14,0.422L14.39,35.1h0.028
			l0.028,0.028h0.028l1.262,0.366h0.056l0.028,0.028l0.449,0.084l0.337-1.772l-0.365-0.056V33.75z"/>
	</g>
</g>
</svg>
