<?xml version="1.0" encoding="utf-8"?>
<!-- Generator: Adobe Illustrator 17.0.0, SVG Export Plug-In . SVG Version: 6.00 Build 0)  -->
<!DOCTYPE svg PUBLIC "-//W3C//DTD SVG 1.1//EN" "http://www.w3.org/Graphics/SVG/1.1/DTD/svg11.dtd">
<svg version="1.1" id="Shape_111_1_" xmlns="http://www.w3.org/2000/svg" xmlns:xlink="http://www.w3.org/1999/xlink" x="0px"
	 y="0px" width="41px" height="35px" viewBox="0 0 41 35" enable-background="new 0 0 41 35" xml:space="preserve">
<g id="Shape_111">
	<g>
		<path fill="#9B27AE" d="M41,30.548l-0.051-0.872c-0.104-1.748-0.787-3.109-1.738-4.08c-0.951-0.971-2.145-1.58-3.297-2.078
			c-1.152-0.499-2.285-0.877-3.144-1.309c-0.829-0.417-1.3-0.837-1.508-1.334c-0.068-0.863-0.082-1.564-0.077-2.386
			c0.078-0.091,0.207-0.154,0.281-0.257c0.195-0.269,0.391-0.597,0.562-0.949c0.291-0.6,0.488-1.309,0.613-2.027
			c0.213-0.12,0.44-0.138,0.613-0.359c0.352-0.45,0.586-1.058,0.69-1.924v-0.026c0.089-0.752-0.152-1.255-0.46-1.668
			c0.338-1.112,0.755-2.869,0.613-4.696c-0.078-1.008-0.333-2.023-0.946-2.874c-0.582-0.808-1.535-1.402-2.735-1.617
			c-0.781-0.868-2.011-1.257-3.451-1.257c-1.984,0.036-3.524,0.53-4.652,1.411C21.8,1.926,21.2,1.69,20.526,1.552
			c-0.859-1.118-2.407-1.54-4.192-1.54h-0.026c-3.821,0.071-6.261,1.621-7.31,4.029c-0.999,2.293-0.776,5.19-0.051,8.185
			c-0.39,0.458-0.698,1.074-0.588,2.002c0.121,1.009,0.398,1.727,0.792,2.232c0.217,0.277,0.503,0.303,0.767,0.436
			c0.145,0.859,0.383,1.72,0.741,2.438c0.206,0.412,0.436,0.795,0.665,1.103c0.101,0.137,0.251,0.218,0.358,0.334
			c0.005,1.013,0.01,1.857-0.077,2.925c-0.266,0.644-0.886,1.164-1.892,1.668c-1.038,0.52-2.391,1.002-3.757,1.591
			s-2.773,1.308-3.885,2.438c-1.112,1.13-1.897,2.678-2.019,4.721L0,34.987h0.869h31.082h0.869l-0.051-0.872
			c-0.085-1.42-0.486-2.599-1.099-3.567h8.461H41z M1.892,33.345c0.231-1.163,0.662-2.093,1.355-2.797
			c0.872-0.886,2.062-1.549,3.349-2.104c1.286-0.555,2.642-0.994,3.834-1.591c1.192-0.597,2.293-1.382,2.761-2.643l0.026-0.103
			l0.026-0.103c0.124-1.376,0.077-2.352,0.077-3.541v-0.488l-0.435-0.231c0.075,0.039-0.101-0.074-0.256-0.282
			c-0.154-0.209-0.341-0.507-0.511-0.847c-0.339-0.68-0.615-1.555-0.69-2.258l-0.077-0.667l-0.69-0.051
			c-0.006-0.001-0.083,0.009-0.23-0.18c-0.147-0.188-0.338-0.605-0.435-1.411c-0.081-0.682,0.265-0.92,0.23-0.898l0.537-0.334
			l-0.153-0.59c-0.77-2.975-0.903-5.681-0.102-7.518c0.799-1.833,2.427-2.984,5.828-3.054c0.01,0,0.015,0,0.026,0
			c1.647,0.006,2.713,0.491,3.016,1.026l0.204,0.334l0.383,0.051c1.138,0.159,1.789,0.619,2.249,1.257
			c0.46,0.638,0.716,1.53,0.792,2.515c0.153,1.97-0.411,4.263-0.767,5.337l-0.204,0.642l0.562,0.334
			c-0.035-0.021,0.312,0.216,0.23,0.898c-0.096,0.806-0.287,1.223-0.435,1.411c-0.147,0.188-0.224,0.179-0.23,0.18l-0.69,0.051
			l-0.077,0.667c-0.076,0.711-0.36,1.578-0.69,2.258c-0.165,0.34-0.336,0.639-0.486,0.847c-0.15,0.207-0.308,0.324-0.23,0.282
			l-0.435,0.231v0.488c0,1.189-0.047,2.164,0.077,3.541v0.103l0.051,0.103c0.467,1.26,1.547,2.046,2.735,2.643
			c1.188,0.597,2.553,1.036,3.834,1.591c1.096,0.475,2.099,1.04,2.914,1.745c0.004,0.004-0.004,0.022,0,0.026
			c0.039,0.038,0.082,0.073,0.128,0.103c0.052,0.06,0.112,0.112,0.179,0.154c0.005,0.005,0.021-0.005,0.026,0
			c0.025,0.025,0.052,0.052,0.077,0.077c0.69,0.704,1.124,1.634,1.355,2.797H1.892z M30.213,28.906
			c-1.005-0.855-2.171-1.451-3.323-1.95c-1.361-0.59-2.698-1.071-3.732-1.591c-0.992-0.499-1.62-1.006-1.891-1.642
			c-0.09-1.082-0.082-1.929-0.077-2.951c0.106-0.116,0.259-0.196,0.358-0.334c0.224-0.31,0.439-0.691,0.639-1.103
			c0.349-0.719,0.6-1.581,0.741-2.438c0.257-0.133,0.53-0.166,0.741-0.436c0.395-0.505,0.672-1.223,0.792-2.232
			c0.108-0.898-0.191-1.491-0.562-1.95c0.399-1.302,0.909-3.408,0.741-5.568c-0.092-1.179-0.394-2.357-1.099-3.336
			c-0.004-0.005,0.004-0.02,0-0.026c0.771-0.513,1.866-0.84,3.425-0.872c0.01,0,0.015,0,0.026,0c1.362,0.006,2.21,0.411,2.428,0.796
			l0.205,0.333l0.383,0.077c0.929,0.13,1.447,0.464,1.815,0.975c0.368,0.511,0.576,1.239,0.639,2.053
			c0.127,1.628-0.344,3.571-0.639,4.465l-0.204,0.616l0.562,0.334c-0.075-0.046,0.216,0.113,0.153,0.642
			c-0.08,0.663-0.253,0.995-0.358,1.129c-0.105,0.134-0.133,0.105-0.102,0.103l-0.69,0.051l-0.051,0.667
			c-0.062,0.577-0.316,1.286-0.588,1.847c-0.136,0.281-0.263,0.526-0.383,0.693c-0.072,0.1-0.125,0.174-0.153,0.205h-0.026
			c-0.003,0.004,0,0.024,0,0.026l-0.435,0.205v0.488c0,0.998-0.028,1.834,0.077,3.002v0.103l0.051,0.103
			c0.411,1.107,1.365,1.775,2.377,2.284c1.013,0.509,2.148,0.896,3.221,1.36c1.072,0.464,2.049,0.993,2.761,1.719
			c0.536,0.547,0.873,1.276,1.074,2.155H30.213z"/>
	</g>
</g>
</svg>
