<svg version="1.1" xmlns="http://www.w3.org/2000/svg" xmlns:xlink="http://www.w3.org/1999/xlink" x="0px" y="0px" width="208px"
	 height="54px" viewBox="0 0 208 54" enable-background="new 0 0 208 54" xml:space="preserve">
<g>
	<g>
		<g>
			<path fill-rule="evenodd" clip-rule="evenodd" fill="#192554" d="M85.168,21.656c-3.584,0-5.024-3.232-5.024-6.911
				c0-3.68,1.28-6.656,4.768-6.656c0.992,0,4,0.16,4.608,3.776h2.144v-5.12H89.68v1.472h-0.096c-0.864-1.28-2.56-2.112-4.736-2.112
				c-6.272,0-7.679,4.864-7.679,8.639c0,8.671,6.304,8.895,7.935,8.895c5.76,0,6.911-4.512,7.071-6.432h-2.688
				C89.392,19,88.368,21.656,85.168,21.656z M93.936,12.505h1.984V8.729h4.288v12.287h-2.112V23h7.039v-1.984h-2.112V8.729h4.288
				v3.776h1.984v-5.76H93.936V12.505z M121.263,6.105c-1.408,0-3.744,0.416-5.376,2.88h-0.096v-2.24h-4.736v1.984h2.112v18.207
				h-2.112v1.984h7.039v-1.984h-2.112v-6.272c1.44,2.816,4.704,2.976,5.344,2.976c3.712,0,7.263-2.464,7.263-8.767
				C128.59,8.793,125.263,6.105,121.263,6.105z M120.815,21.656c-2.144,0-5.024-1.696-5.024-6.719c0-6.144,3.424-6.848,4.864-6.848
				c3.2,0,4.96,2.56,4.96,6.784C125.615,20.056,123.087,21.656,120.815,21.656z M139.663,6.105c-5.92,0-7.999,4.448-7.999,8.767
				c0,4.32,2.08,8.767,7.999,8.767s7.999-4.448,7.999-8.767C147.662,10.553,145.583,6.105,139.663,6.105z M139.663,21.656
				c-1.248,0-5.024-0.288-5.024-6.815s3.776-6.815,5.024-6.815s5.024,0.288,5.024,6.815S140.911,21.656,139.663,21.656z
				 M155.567,19.704V8.729h2.112V6.745h-7.039v1.984h2.112v12.287h-2.112V23h5.28l8.287-12.991v11.007h-2.112V23h7.039v-1.984
				h-2.112V8.729h2.112V6.745h-5.248L155.567,19.704z M159.695,4.889c3.232,0,5.088-1.6,5.568-4.288h-2.496
				c-0.224,1.632-1.376,2.464-3.072,2.464c-1.696,0-2.848-0.832-3.072-2.464h-2.496C154.607,3.289,156.463,4.889,159.695,4.889z
				 M180.655,14.393l4.864-5.664h1.856V6.745h-6.336v1.984h1.568l-4.864,5.76L184.398,23h3.712v-1.984h-2.144L180.655,14.393z
				 M176.943,8.729h2.112V6.745h-7.039v1.984h2.112v12.287h-2.112V23h7.039v-1.984h-2.112V8.729z M208.206,8.729V6.745h-5.248
				l-8.319,12.959V8.729h2.112V6.745h-7.039v1.984h2.112v12.287h-2.112V23h5.28l8.287-12.991v11.007h-2.112V23h7.039v-1.984h-2.112
				V8.729H208.206z M28.184,38.295h1.584v3.528H23.6v-3.528h1.584v-1.488h-5.28v1.488h1.584v9.217h-1.584V49h5.28v-1.488H23.6v-4.2
				h6.169v4.2h-1.584V49h5.28v-1.488h-1.584v-9.217h1.584v-1.488h-5.28V38.295z M41.696,36.327c-4.44,0-6.001,3.336-6.001,6.577
				s1.56,6.577,6.001,6.577c4.44,0,6-3.336,6-6.577S46.136,36.327,41.696,36.327z M41.696,47.992c-0.936,0-3.768-0.216-3.768-5.112
				s2.832-5.112,3.768-5.112c0.936,0,3.768,0.216,3.768,5.112S42.632,47.992,41.696,47.992z M58.976,42.639v-0.072
				c0.408-0.144,2.208-0.672,2.208-2.856c0-2.544-2.88-2.904-4.104-2.904h-7.153v1.488h1.584v9.217h-1.584V49h7.081
				c1.992,0,4.632-0.744,4.632-3.336C61.64,44.488,61.184,43.215,58.976,42.639z M53.624,38.295h3.024c0.864,0,2.4,0.096,2.4,1.728
				c0,0.84-0.504,1.872-2.496,1.872h-2.928V38.295z M56.72,47.512h-3.096v-4.128h3.024c0.936,0,2.808,0.144,2.808,2.256
				C59.456,47.464,57.44,47.512,56.72,47.512z M69.632,36.327c-4.44,0-6,3.336-6,6.577s1.56,6.577,6,6.577s6.001-3.336,6.001-6.577
				S74.072,36.327,69.632,36.327z M69.632,47.992c-0.936,0-3.768-0.216-3.768-5.112s2.832-5.112,3.768-5.112
				s3.768,0.216,3.768,5.112S70.568,47.992,69.632,47.992z"/>
		</g>
	</g>
</g>
<g enable-background="new    ">
	<g>
		<g>
			<path fill-rule="evenodd" clip-rule="evenodd" fill="#9B27AE" d="M10.832,8.729h2.112v4.704H4.721V8.729h2.112V6.745h-7.039
				v1.984h2.112v12.287h-2.112V23h7.039v-1.984H4.721v-5.6h8.223v5.6h-2.112V23h7.039v-1.984H15.76V8.729h2.112V6.745h-7.039V8.729z
				 M28.848,6.105c-5.92,0-7.999,4.448-7.999,8.767c0,4.32,2.08,8.767,7.999,8.767s7.999-4.448,7.999-8.767
				C36.847,10.553,34.768,6.105,28.848,6.105z M28.848,21.656c-1.248,0-5.024-0.288-5.024-6.815s3.776-6.815,5.024-6.815
				s5.024,0.288,5.024,6.815S30.096,21.656,28.848,21.656z M51.888,14.521v-0.096c0.544-0.192,2.944-0.896,2.944-3.808
				c0-3.392-3.84-3.872-5.472-3.872h-9.535v1.984h2.112v12.287h-2.112V23h9.439c2.656,0,6.176-0.992,6.176-4.448
				C55.439,16.984,54.831,15.289,51.888,14.521z M44.752,8.729h4.032c1.152,0,3.2,0.128,3.2,2.304c0,1.12-0.672,2.496-3.328,2.496
				h-3.904V8.729z M48.88,21.016h-4.128v-5.504h4.032c1.248,0,3.744,0.192,3.744,3.008C52.528,20.952,49.84,21.016,48.88,21.016z
				 M66.096,6.105c-5.92,0-7.999,4.448-7.999,8.767c0,4.32,2.08,8.767,7.999,8.767s7.999-4.448,7.999-8.767
				C74.095,10.553,72.016,6.105,66.096,6.105z M66.096,21.656c-1.248,0-5.024-0.288-5.024-6.815s3.776-6.815,5.024-6.815
				c1.248,0,5.024,0.288,5.024,6.815S67.344,21.656,66.096,21.656z M83.936,47.992c-2.688,0-3.768-2.424-3.768-5.184
				s0.96-4.992,3.576-4.992c0.744,0,3,0.12,3.456,2.832h1.608v-3.84H87.32v1.104h-0.072c-0.648-0.96-1.92-1.584-3.552-1.584
				c-4.704,0-5.76,3.648-5.76,6.481c0,6.505,4.728,6.673,5.953,6.673c4.32,0,5.184-3.384,5.304-4.824h-2.016
				C87.104,46,86.336,47.992,83.936,47.992z M95.047,46.528v-8.233h1.584v-1.488h-5.28v1.488h1.584v9.217h-1.584V49h3.96
				l6.217-9.745v8.257h-1.584V49h5.28v-1.488h-1.584v-9.217h1.584v-1.488h-3.936L95.047,46.528z M113.791,36.519
				c-3.096,0-4.272,1.872-4.728,3.096h-0.048c0.072-3.384,1.608-4.536,3.408-5.04c2.28-0.576,6.385,0.048,6.577-3.168h-1.8
				c-0.312,1.08-1.752,0.528-4.944,1.296c-2.616,0.576-4.8,2.112-4.8,8.545c0,2.376,0.312,8.233,6.145,8.233
				c4.248,0,6-3.216,6-6.385C119.6,39.759,117.943,36.519,113.791,36.519z M113.551,47.992c-3.192,0-3.864-2.904-3.864-4.752
				c0-1.896,0.456-5.232,3.864-5.232c3.384,0,3.816,3.408,3.816,5.328C117.367,46.144,116.071,47.992,113.551,47.992z
				 M125.527,46.528v-8.233h1.584v-1.488h-5.28v1.488h1.584v9.217h-1.584V49h3.96l6.216-9.745v8.257h-1.584V49h5.28v-1.488h-1.584
				v-9.217h1.584v-1.488h-3.936L125.527,46.528z M145.519,36.327c-1.056,0-2.808,0.312-4.032,2.16h-0.072v-1.68h-3.552v1.488h1.584
				v13.657h-1.584v1.488h5.28v-1.488h-1.584v-4.704c1.08,2.112,3.528,2.232,4.008,2.232c2.784,0,5.448-1.848,5.448-6.577
				C151.015,38.343,148.519,36.327,145.519,36.327z M145.183,47.992c-1.608,0-3.768-1.272-3.768-5.04
				c0-4.608,2.568-5.136,3.648-5.136c2.4,0,3.72,1.92,3.72,5.088C148.783,46.792,146.887,47.992,145.183,47.992z M159.319,47.992
				c-2.688,0-3.768-2.424-3.768-5.184s0.96-4.992,3.576-4.992c0.744,0,3,0.12,3.456,2.832h1.608v-3.84h-1.488v1.104h-0.072
				c-0.648-0.96-1.92-1.584-3.552-1.584c-4.704,0-5.76,3.648-5.76,6.481c0,6.505,4.728,6.673,5.953,6.673
				c4.32,0,5.184-3.384,5.304-4.824h-2.016C162.487,46,161.719,47.992,159.319,47.992z M173.214,42.543l3.648-4.248h1.392v-1.488
				h-4.752v1.488h1.176l-3.648,4.32L176.023,49h2.784v-1.488h-1.608L173.214,42.543z M170.43,38.295h1.584v-1.488h-5.28v1.488h1.584
				v9.217h-1.584V49h5.28v-1.488h-1.584V38.295z M190.399,47.512v-7.081c0.072-3.552-2.88-4.104-4.848-4.104
				c-4.32,0-5.184,2.448-5.184,4.08h2.016c-0.072-2.544,2.4-2.592,3.168-2.592c2.688,0,2.736,1.872,2.736,2.448
				c0,1.584-0.576,1.56-2.376,1.68c-4.896,0.456-5.977,1.752-5.977,3.864c0,2.568,1.728,3.672,4.296,3.672
				c1.656,0,3.336-0.672,4.176-2.208V49h3.528v-1.488H190.399z M188.286,43.624c0,3.264-2.16,4.368-3.816,4.368
				c-1.368,0-2.352-0.816-2.352-2.256c0-1.992,1.608-2.064,3.48-2.376c1.344-0.192,2.064-0.12,2.688-0.6V43.624z"/>
		</g>
	</g>
</g>
</svg>
